PathFileType	4	(X/Y/Z)	Patient4_TMGait_0pt8_01_left_15.trc.trc
DataRate	CameraRate	NumFrames	NumMarkers	Units	OrigDataRate	OrigDataStartFrame	OrigNumFrames
89.743589743590	89.743589743590	4	33	mm	89.743589743590	36	       141
Frame#	Time	Sacral			L.Shoulder			Chest			R.Shoulder			Neck			R.ASIS			L.ASIS			R.Thigh.Superior			R.Thigh.Lateral			R.Thigh.Inferior			R.Patella			L.Thigh.Superior			L.Thigh.Lateral			L.Thigh.Inferior			L.Patella			L.Shank.Superior			L.Shank.Lateral			L.Shank.Inferior			R.Shank.Superior			R.Shank.Lateral			R.Shank.Inferior			R.Heel			R.Midfoot.Superior			R.Midfoot.Lateral			R.Toe			L.Heel			L.Midfoot.Lateral			L.Midfoot.Superior			L.Toe			L.Elbow			L.Wrist			R.Elbow			R.Wrist			
		X1	Y1	Z1	X2	Y2	Z2	X3	Y3	Z3	X4	Y4	Z4	X5	Y5	Z5	X6	Y6	Z6	X7	Y7	Z7	X8	Y8	Z8	X9	Y9	Z9	X10	Y10	Z10	X11	Y11	Z11	X12	Y12	Z12	X13	Y13	Z13	X14	Y14	Z14	X15	Y15	Z15	X16	Y16	Z16	X17	Y17	Z17	X18	Y18	Z18	X19	Y19	Z19	X20	Y20	Z20	X21	Y21	Z21	X22	Y22	Z22	X23	Y23	Z23	X24	Y24	Z24	X25	Y25	Z25	X26	Y26	Z26	X27	Y27	Z27	X28	Y28	Z28	X29	Y29	Z29	X30	Y30	Z30	X31	Y31	Z31	X32	Y32	Z32	X33	Y33	Z33	

36	16.400000000000	915.779314712938	997.576879981794	454.753468674006	1057.874278270992	1419.562009420341	256.330923829360	1185.046671387523	1354.152151207923	401.581662729742	1126.971955575702	1433.379223331799	583.407446250744	1064.306386660318	1483.157572822524	410.732007012168	1146.047343026942	925.490801295771	550.830538761235	1114.750634801172	950.294215139849	278.790121411338	1149.028569529458	711.924774287881	529.114554526435	1050.963323520992	615.175095857181	594.710406420900	1117.720673536995	546.326884870089	518.575257555112	1093.766066470706	442.595582227313	535.407717405994	1194.246910900842	766.354424703467	308.110814714230	1128.310467326620	636.697105309637	244.861233069701	1231.455684341705	574.572241203117	300.435672921086	1246.537764762128	503.343937365731	305.888296972632	1225.097599351069	426.966741927486	300.448270213427	1143.328330618004	304.587912775499	253.531895682070	1210.879839650261	198.577775115878	320.222161069748	1017.532136397206	378.703291210970	542.609310983564	899.787836339130	333.569797283966	605.591123878175	888.310633944049	225.629700851094	551.517112154020	687.603669812768	139.163910887492	522.548703401875	863.575291529015	116.161400559806	565.928868245151	755.925353589521	95.226051398338	597.907050354091	946.365944391607	32.892783845182	596.051636242497	1098.129331830596	38.788327128476	368.733845056733	1168.518126431352	35.838590710770	284.492139433426	1251.348544587029	98.289450091830	307.974479439579	1379.123033417321	49.645587558644	275.271399725145	904.838953183473	1099.436544712099	185.113163529679	836.804490490240	850.019410217929	203.809361990435	1276.405884566176	1127.642805045384	690.467463565255	1469.130555725475	1258.282086151940	603.800147395011	
37	16.411142857143	915.511265324696	999.226389338975	451.419778191623	1059.437581432120	1421.359724545965	253.749364758029	1185.291130310681	1356.034021510134	400.117161626770	1125.652103702475	1435.388951591366	581.352144846997	1064.535053432071	1484.968443416396	408.226905787785	1145.271308104426	927.476084129891	548.622041485115	1115.505222045928	952.140445021573	276.627172329143	1153.568243299746	714.711927523679	527.449423289084	1058.269988496636	615.758329534818	593.136337071840	1127.625997353199	547.985905981142	517.672851338745	1104.828616448631	442.583199911248	535.565870745566	1193.484052481436	765.916143576190	304.291590183464	1124.573468536553	636.853750917048	243.321288175790	1227.179561694900	573.562481612465	298.386086947434	1241.407061767844	502.640058988076	304.640146587558	1219.371275946563	426.450121356740	299.395124346758	1136.534138902687	304.706009464629	252.735696497148	1202.942009484477	198.263832246873	319.778436151238	1026.204836139956	379.736960739044	541.957323897536	906.093819678867	339.436516173845	603.894587803720	891.500203354919	231.573295553503	550.770294306017	688.225442001062	154.458877654879	520.387863489007	862.593372926520	121.820936920557	565.515708975054	753.444900372207	106.726192041023	596.309212542278	939.719432275866	32.634975467912	595.954522208502	1089.204949312149	38.713456916543	368.582213046429	1159.569048545136	35.819342095946	284.343294210199	1242.324381408532	98.312034728751	307.817802304672	1370.119489627628	49.908891522484	275.049863053138	911.652824741821	1098.276916683801	180.831875528560	850.578019127074	846.935083156144	198.909956884380	1265.944294819000	1124.872689235769	690.247919834132	1461.285436865172	1251.011033298048	603.119193396322	
38	16.422285714286	915.042474570099	1000.765704303917	448.139435019495	1061.028778352331	1423.105049137004	251.230735787422	1185.400542159178	1357.843572772096	398.821795210371	1124.009231268357	1437.257181700531	579.433604768530	1064.654853983583	1486.701429538428	405.789123495413	1144.337537046498	929.401136006303	546.658229056676	1116.139626037380	953.872514476809	274.652870843686	1158.291055351066	717.720839022836	526.119669148330	1065.795605030912	616.551318066682	591.774300838556	1137.811871368237	550.006959086825	517.030791095145	1116.310747076014	443.075598599654	535.701990126439	1192.334088309181	765.181650209162	300.675581954375	1120.526290598510	636.918316494495	241.953542930911	1222.508904668687	572.453172490401	296.652880951986	1235.825344339215	501.850013405204	303.615197625338	1213.245075168490	425.901113406723	298.492158850189	1129.454062168685	304.729374065328	252.110430728594	1194.855765534194	197.918411358291	319.413321422661	1035.532959785537	381.064067160470	541.233071128407	913.276596348707	345.464678622609	602.091342511342	895.611703865834	237.857595469060	549.802753314289	690.284978578883	169.868274804710	517.863176218771	862.634176891842	128.157873737281	564.802957308411	752.297443343452	118.694716399359	594.415122319471	934.230571129801	32.927811575724	595.709955033503	1080.227492493645	38.635816549978	368.479860759011	1150.568029717708	35.762861728435	284.244289317712	1233.299025212687	98.261392564304	307.713052212958	1361.103926737977	49.981870159062	274.872965488186	918.718353469417	1097.083424254099	176.350561954837	865.550778180941	843.799387704595	193.737756883819	1254.415058377846	1121.985168510810	690.237975073708	1453.192360881903	1242.280187539000	602.778615134279	
39	16.433428571429	914.381867727220	1002.157645261869	444.927834767105	1062.644026009075	1424.744607768462	248.791358011721	1185.382046716958	1359.528867746006	397.703818010758	1122.070227268847	1438.937078127933	577.665154234093	1064.674456722994	1488.324576868516	403.430217462068	1143.248421553087	931.223194703135	544.940019848162	1116.652241021387	955.462492768065	272.865200109390	1163.077829067343	720.941266803228	525.082152332477	1073.419813536555	617.597366240465	590.617116430627	1148.099635249249	552.426162817931	516.612896224951	1128.075921943271	444.106323769780	535.818113187272	1190.827736480128	764.239239922185	297.398643219749	1116.356160351035	636.959976760336	240.707828324601	1217.573302047857	571.310647430114	295.260348229586	1229.918597632120	501.004585766938	302.812329135833	1206.849905677829	425.336770736678	297.750299403917	1122.238529895429	304.686384576329	251.586713073058	1186.696123465470	197.552951332954	319.126081068020	1045.404099578216	382.709076400437	540.469070808709	921.241060890614	351.555814840134	600.229063908971	900.662404249919	244.340164017168	548.646534730474	693.794036066615	184.929061055933	515.065130518523	863.827324803432	134.959453355042	563.775391716833	752.626067659729	130.725963882897	592.262933807581	930.214535629406	33.910814385805	595.252849373808	1071.218333007008	38.567257435997	368.406075195314	1141.540069106188	35.685145586361	284.178708346801	1224.296066029681	98.149189560179	307.653484539003	1352.096998798848	49.881251463888	274.740465865646	926.038524628886	1095.820574349009	171.697034473048	881.649089788487	840.681411215919	188.322888733377	1241.912138775187	1119.016404020859	690.389882690214	1444.849022854163	1232.078109777679	602.795960893754	
